<?xml version="1.0" encoding="UTF-8" standalone="no"?>
<svg
   xmlns:dc="http://purl.org/dc/elements/1.1/"
   xmlns:cc="http://creativecommons.org/ns#"
   xmlns:rdf="http://www.w3.org/1999/02/22-rdf-syntax-ns#"
   xmlns:svg="http://www.w3.org/2000/svg"
   xmlns="http://www.w3.org/2000/svg"
   xmlns:sodipodi="http://sodipodi.sourceforge.net/DTD/sodipodi-0.dtd"
   xmlns:inkscape="http://www.inkscape.org/namespaces/inkscape"
   sodipodi:docname="logoyritys.svg"
   inkscape:version="1.0 (4035a4fb49, 2020-05-01)"
   id="svg8"
   version="1.1"
   viewBox="0 0 210 297"
   height="297mm"
   width="210mm">
  <defs
     id="defs2" />
  <sodipodi:namedview
     inkscape:window-maximized="0"
     inkscape:window-y="0"
     inkscape:window-x="1998"
     inkscape:window-height="1009"
     inkscape:window-width="1372"
     showgrid="false"
     inkscape:document-rotation="0"
     inkscape:current-layer="layer1"
     inkscape:document-units="mm"
     inkscape:cy="414.08988"
     inkscape:cx="540.57431"
     inkscape:zoom="0.7"
     inkscape:pageshadow="2"
     inkscape:pageopacity="0.0"
     borderopacity="1.0"
     bordercolor="#666666"
     pagecolor="#ffffff"
     id="base" />
  <metadata
     id="metadata5">
    <rdf:RDF>
      <cc:Work
         rdf:about="">
        <dc:format>image/svg+xml</dc:format>
        <dc:type
           rdf:resource="http://purl.org/dc/dcmitype/StillImage" />
        <dc:title></dc:title>
      </cc:Work>
    </rdf:RDF>
  </metadata>
  <g
     id="layer1"
     inkscape:groupmode="layer"
     inkscape:label="Taso 1">
    <path
       sodipodi:nodetypes="cccccccccccccccccc"
       id="path833"
       d="m 70.83346,37.798841 -13.986796,51.276785 78.092966,1.176075 9.32453,-38.575198 -7.2265,0.235215 -8.15898,25.638388 -6.29405,-25.873603 -9.55765,-0.235215 -7.45962,30.342689 H 98.340831 L 107.43226,50.735642 99.040175,50.500427 89.715638,81.078332 68.0361,81.313547 76.661293,47.207425 99.972635,38.269271 Z"
       style="fill:#000000;stroke:#000000;stroke-width:0.231808px;stroke-linecap:butt;stroke-linejoin:miter;stroke-opacity:1" />
    <path
       id="path835"
       d="m 116.6769,81.254688 h 5.36161 l -3.72981,-16.700242 -4.42916,16.935457 z"
       style="fill:#ffffff;stroke:none;stroke-width:0.231808px;stroke-linecap:butt;stroke-linejoin:miter;stroke-opacity:1" />
    <path
       sodipodi:nodetypes="ssssssscssssssscsssssssss"
       id="path853"
       d="M 33.820547,86.515701 C 20.888453,76.255374 9.967779,67.350378 9.5523983,66.726823 c -0.661301,-0.992713 -0.661301,-1.274762 0,-2.267476 C 9.967779,63.835792 20.888453,54.930797 33.820547,44.67047 53.750751,28.857863 57.55739,26.015331 58.802993,26.015331 c 2.111099,0 8.226446,4.733896 8.226446,6.36811 0,0.96628 -3.247109,3.734144 -20.155581,17.180746 l -20.155585,16.028897 20.155585,16.0289 c 16.908472,13.446599 20.155581,16.214467 20.155581,17.180744 0,1.634212 -6.115347,6.368112 -8.226446,6.368112 -1.245603,0 -5.052242,-2.84253 -24.982446,-18.655139 z M 137.55833,102.56271 c -2.57006,-1.98404 -3.37847,-2.883758 -3.37847,-3.759982 0,-0.966277 3.24711,-3.734145 20.15559,-17.180744 l 20.15558,-16.0289 -20.15558,-16.028897 C 137.42697,36.117585 134.17986,33.349721 134.17986,32.383441 c 0,-1.634214 6.11534,-6.36811 8.22646,-6.36811 1.24561,0 5.05226,2.842532 24.98243,18.655139 12.93211,10.260327 23.85278,19.165322 24.26816,19.788877 0.66131,0.992714 0.66131,1.274763 0,2.267476 -0.41538,0.623555 -11.33605,9.736778 -24.26816,19.997104 -19.93017,15.812603 -23.73682,18.446913 -24.98243,18.446913 -1.10279,0 -2.31265,-0.65088 -4.84799,-2.60813 z"
       style="fill:#000000;stroke-width:0.462361" />
  </g>
</svg>
